# xmcd
#
# Track frame offsets:
#	150
#	14968
#	29326
#	47046
#	58801
#	73165
#	97423
#	112368
#	135302
#	150496
#	166459
#	181858
#	202380
#	219848
#	233732
#	250444
#	275552
#	292750
#
# Disc length: 4128 seconds
#
# Revision: 1
# Processed by: cddbd v1.5.1PL0 Copyright (c) Steve Scherf et al.
# Submitted via: audiograbber 1.83.01
#
DISCID=1b101e12
DTITLE=El Cubano - A Bailar con El Cubano
DYEAR=1998
DGENRE=
TTITLE0=Bailando plena con El Cubano
TTITLE1=Amor amor
TTITLE2=Amada ven
TTITLE3=Los Compadres
TTITLE4=Carmencita
TTITLE5=Maestra vida
TTITLE6=Arroyito
TTITLE7=Tiburón
TTITLE8=De la boca pa fuera
TTITLE9=Todo en la vida pasará
TTITLE10=Buscando a Malen
TTITLE11=Mi pueblo
TTITLE12=Que te vaya bien
TTITLE13=University plena
TTITLE14=Gotas de lluvia
TTITLE15=Según el color
TTITLE16=Si yo encontrara un amor
TTITLE17=Paula C
EXTD=
EXTT0=
EXTT1=
EXTT2=
EXTT3=
EXTT4=
EXTT5=
EXTT6=
EXTT7=
EXTT8=
EXTT9=
EXTT10=
EXTT11=
EXTT12=
EXTT13=
EXTT14=
EXTT15=
EXTT16=
EXTT17=
PLAYORDER=
